<svg width="52" height="48" viewBox="0 0 52 48" fill="none" xmlns="http://www.w3.org/2000/svg">
<path id="Vector" d="M35.5575 0C32.3062 0 29.5012 2.08477 27.78 5.24171C30.6487 8.45821 32.37 12.866 32.37 17.929C32.37 19.6564 32.1787 21.2051 31.7962 22.7538C33.0075 23.409 34.2187 23.8855 35.5575 23.8855C40.8487 23.8855 45.12 18.5247 45.12 11.9725C45.12 5.4204 40.8487 0.0595648 35.5575 0.0595648V0ZM16.4325 5.95648C11.1412 5.95648 6.87 11.3173 6.87 17.8695C6.87 24.4216 11.1412 29.7824 16.4325 29.7824C21.7237 29.7824 25.995 24.4216 25.995 17.8695C25.995 11.3173 21.7237 5.95648 16.4325 5.95648ZM46.7137 24.779C43.9725 27.8168 40.2112 29.6633 35.94 29.7824C37.6612 32.0459 38.745 34.7859 38.745 37.7641V41.6954H51.495V31.8076C51.495 28.7103 49.5187 26.0298 46.7137 24.7194V24.779ZM5.27625 30.7355C2.47125 32.0459 0.494995 34.7263 0.494995 37.8237V47.7114H32.37V37.8237C32.37 34.7263 30.3937 32.0459 27.5887 30.7355C24.72 33.8924 20.8312 35.7389 16.4325 35.7389C12.0337 35.7389 8.145 33.8328 5.27625 30.7355Z" fill="#FFC107"/>
</svg>
