<svg width="43" height="49" viewBox="0 0 43 49" fill="none" xmlns="http://www.w3.org/2000/svg">
<path id="Vector" d="M12.1241 0V6.06205H18.1862V6.24392C7.88067 7.69881 0 16.61 0 27.2792C0 38.979 9.51742 48.4964 21.2172 48.4964C32.917 48.4964 42.4344 38.979 42.4344 27.2792C42.4344 24.5513 41.8282 22.0053 40.9189 19.7017L35.4024 22.0053C36.0692 23.7633 36.3723 25.4606 36.3723 27.3399C36.3723 35.7661 29.6434 42.495 21.2172 42.495C12.7909 42.495 6.06205 35.7661 6.06205 27.3399C6.06205 18.9136 12.7909 12.1847 21.2172 12.1847C23.0358 12.1847 24.7938 12.4878 26.5518 13.1547L28.6129 7.45633C27.2186 6.97136 25.7637 6.72888 24.2482 6.4864V6.12267H30.3103V0.0606205H12.1241V0ZM42.4344 7.03198C42.4344 7.03198 20.3079 24.0664 19.1561 25.2181C18.0043 26.4306 18.0043 28.1886 19.1561 29.401C20.3079 30.6134 22.1265 30.6134 23.3389 29.401C24.5513 28.1886 42.495 7.03198 42.495 7.03198H42.4344Z" fill="#FFC107"/>
</svg>
