<svg width="184" height="40" viewBox="0 0 184 40" fill="none" xmlns="http://www.w3.org/2000/svg">
<path d="M22 20.3038C22 14.7472 17.5229 10.2427 12 10.2427C6.47715 10.2427 2 14.7472 2 20.3038C2 25.3255 5.65684 29.4879 10.4375 30.2427V23.2121H7.89844V20.3038H10.4375V18.0872C10.4375 15.5656 11.9305 14.1728 14.2146 14.1728C15.3088 14.1728 16.4531 14.3693 16.4531 14.3693V16.8453H15.1922C13.95 16.8453 13.5625 17.6209 13.5625 18.4166V20.3038H16.3359L15.8926 23.2121H13.5625V30.2427C18.3432 29.4879 22 25.3257 22 20.3038Z" fill="#FFC107"/>
<path fill-rule="evenodd" clip-rule="evenodd" d="M56 11.2427H48C45.2386 11.2427 43 13.4813 43 16.2427V24.2427C43 27.0041 45.2386 29.2427 48 29.2427H56C58.7614 29.2427 61 27.0041 61 24.2427V16.2427C61 13.4813 58.7614 11.2427 56 11.2427ZM59.25 24.2427C59.2445 26.0353 57.7926 27.4872 56 27.4927H48C46.2074 27.4872 44.7555 26.0353 44.75 24.2427V16.2427C44.7555 14.45 46.2074 12.9982 48 12.9927H56C57.7926 12.9982 59.2445 14.45 59.25 16.2427V24.2427ZM56.75 16.4927C57.3023 16.4927 57.75 16.045 57.75 15.4927C57.75 14.9404 57.3023 14.4927 56.75 14.4927C56.1977 14.4927 55.75 14.9404 55.75 15.4927C55.75 16.045 56.1977 16.4927 56.75 16.4927ZM52 15.7427C49.5147 15.7427 47.5 17.7574 47.5 20.2427C47.5 22.728 49.5147 24.7427 52 24.7427C54.4853 24.7427 56.5 22.728 56.5 20.2427C56.5027 19.0484 56.0294 17.9022 55.1849 17.0578C54.3404 16.2133 53.1943 15.74 52 15.7427ZM49.25 20.2427C49.25 21.7615 50.4812 22.9927 52 22.9927C53.5188 22.9927 54.75 21.7615 54.75 20.2427C54.75 18.7239 53.5188 17.4927 52 17.4927C50.4812 17.4927 49.25 18.7239 49.25 20.2427Z" fill="#FFC107"/>
<path d="M97.1761 12.2427H99.9362L93.9061 19.0201L101 28.2427H95.4456L91.0951 22.6493L86.1172 28.2427H83.3554L89.8052 20.9935L83 12.2427H88.6954L92.6279 17.3553L97.1761 12.2427ZM96.2073 26.6181H97.7368L87.8644 13.782H86.2232L96.2073 26.6181Z" fill="#FFC107"/>
<path fill-rule="evenodd" clip-rule="evenodd" d="M124.5 11.2427C123.672 11.2427 123 11.9142 123 12.7427V27.7427C123 28.5711 123.672 29.2427 124.5 29.2427H139.5C140.328 29.2427 141 28.5711 141 27.7427V12.7427C141 11.9142 140.328 11.2427 139.5 11.2427H124.5ZM128.521 15.2454C128.526 16.2016 127.811 16.7909 126.961 16.7866C126.161 16.7824 125.464 16.1454 125.468 15.2468C125.472 14.4016 126.14 13.7224 127.008 13.7421C127.888 13.7618 128.526 14.4073 128.521 15.2454ZM132.28 18.0044H129.76H129.758V26.5643H132.422V26.3646C132.422 25.9847 132.421 25.6047 132.421 25.2246C132.42 24.2108 132.419 23.1959 132.425 22.1824C132.426 21.9363 132.437 21.6804 132.5 21.4455C132.738 20.568 133.527 20.0013 134.407 20.1406C134.973 20.2291 135.347 20.5568 135.504 21.0898C135.601 21.423 135.645 21.7816 135.649 22.129C135.661 23.1766 135.659 24.2242 135.657 25.2719C135.657 25.6417 135.656 26.0117 135.656 26.3815V26.5629H138.328V26.3576C138.328 25.9056 138.328 25.4537 138.327 25.0018C138.327 23.8723 138.326 22.7428 138.329 21.6129C138.331 21.1024 138.276 20.599 138.151 20.1054C137.964 19.3713 137.577 18.7638 136.948 18.3251C136.503 18.0129 136.013 17.8118 135.466 17.7893C135.404 17.7867 135.341 17.7833 135.278 17.7799C134.998 17.7648 134.714 17.7494 134.447 17.8033C133.682 17.9566 133.01 18.3068 132.502 18.9241C132.443 18.9949 132.385 19.0668 132.299 19.1741L132.28 19.1984V18.0044ZM125.682 26.5671H128.332V18.01H125.682V26.5671Z" fill="#FFC107"/>
<path d="M181.593 15.203C181.479 14.7804 181.256 14.395 180.947 14.0852C180.638 13.7753 180.253 13.5519 179.831 13.437C178.265 13.007 172 13 172 13C172 13 165.736 12.993 164.169 13.404C163.747 13.5242 163.363 13.7508 163.054 14.0621C162.744 14.3735 162.52 14.7591 162.403 15.182C161.99 16.748 161.986 19.996 161.986 19.996C161.986 19.996 161.982 23.26 162.392 24.81C162.622 25.667 163.297 26.344 164.155 26.575C165.737 27.005 171.985 27.012 171.985 27.012C171.985 27.012 178.25 27.019 179.816 26.609C180.238 26.4943 180.624 26.2714 180.934 25.9622C181.244 25.653 181.467 25.2682 181.583 24.846C181.997 23.281 182 20.034 182 20.034C182 20.034 182.02 16.769 181.593 15.203ZM169.996 23.005L170.001 17.005L175.208 20.01L169.996 23.005Z" fill="#FFC107"/>
</svg>
